<?xml version="1.0" encoding="utf-8"?>
<!-- Generator: Adobe Illustrator 26.0.0, SVG Export Plug-In . SVG Version: 6.00 Build 0)  -->
<svg version="1.1" id="Capa_1" xmlns="http://www.w3.org/2000/svg" xmlns:xlink="http://www.w3.org/1999/xlink" x="0px" y="0px"
	 viewBox="0 0 512 512" style="enable-background:new 0 0 512 512;" xml:space="preserve">
<style type="text/css">
	.st0{fill:#08B9E0;}
	.st1{fill:#FEFEFE;}
	.st2{fill:#FFFFFF;}
	.st3{fill:#FCFCFC;}
</style>
<g>
	<path class="st0" d="M250.1,439.5c-25.3,0-50.6,0.5-75.8-0.1c-54.1-1.3-86.6-33.2-86.9-86.7c-0.2-44.7-8.2-91.3,26.5-129.3
		c7.3-8,4.9-20.1,5.3-30.6c2.8-68.8,49.9-115.4,121.4-120.1c76.2-5,133.7,37.1,144.8,106.3c4.3,27.1,12.6,51.8,24.8,77.1
		c21.3,44.3,19.7,92.8-0.9,137.6c-13.6,29.5-40,45.5-73.9,45.6c-28.4,0.1-56.9,0-85.3,0C250.1,439.4,250.1,439.5,250.1,439.5z"/>
	<path class="st1" d="M378.7,322.3c0,8.4-0.1,16.8,0,25.3c0.2,22.5-4.2,44.8-29,50c-25.5,5.3-53.3,14.2-73.3-16.9
		c-11.4-17.7-23.8-31.3-20.9-55.9c3.5-29.6-25.8-55.1-54.1-53.6c-27.5,1.5-49.5,26.1-49.5,55.5c0,7.3,1.9,15,0.1,21.8
		c-2.2,8.1-8.2,16.2-17.8,14.9c-9.4-1.3-8.4-10.8-8.6-17.9c-0.4-13.7-0.5-27.4-0.2-41.1c1.1-43.9,17.6-60.2,62.2-60.9
		c37.9-0.5,75.8-0.2,113.6-0.1C369.8,243.4,378.7,252.5,378.7,322.3z"/>
	<path class="st2" d="M249.8,205c-22.1,0-44.1-0.1-66.2,0c-21.1,0.2-28-9.9-23.5-30.2c7.9-35.6,47.6-64,90.7-64.3
		c50.7-0.3,85.1,22.7,93.8,62.7c4.7,21.5-3.1,32.1-25.6,31.8C296.1,204.7,272.9,205,249.8,205z"/>
	<path class="st3" d="M201.7,402.3c-9.6-4.6-27.7,6.3-27.8-9.7c-0.1-13.3,16.8-16.3,29.7-15.7c11.3,0.5,28.2,1.8,27.7,14
		C230.4,408.7,211.7,397.9,201.7,402.3z"/>
	<path class="st0" d="M319.1,306.6c-7.4,0-14.8,0.4-22.1-0.1c-11.3-0.7-26,1-28.1-14c-2.3-16.8,12.5-20.5,25.1-22.2
		c18.8-2.6,37.9-3.4,56.5,1.6c9.4,2.6,18.7,7.6,17.9,19.1c-0.8,11.9-10.9,14.5-20.8,15.1c-9.4,0.6-19,0.1-28.4,0.1
		C319.1,306.4,319.1,306.5,319.1,306.6z"/>
	<path class="st0" d="M300,357.4c-12.8-1.8-31.3,2.2-31.2-17.2c0.1-19.2,17.9-20.8,33-20.6c14.5,0.1,33.8-0.6,33,19.5
		C333.9,358.6,314.4,355.9,300,357.4z"/>
</g>
</svg>
