<?xml version="1.0" encoding="utf-8"?>
<!-- Generator: Adobe Illustrator 26.0.0, SVG Export Plug-In . SVG Version: 6.00 Build 0)  -->
<svg version="1.1" id="Capa_1" xmlns="http://www.w3.org/2000/svg" xmlns:xlink="http://www.w3.org/1999/xlink" x="0px" y="0px"
	 viewBox="0 0 512 512" style="enable-background:new 0 0 512 512;" xml:space="preserve">
<style type="text/css">
	.st0{fill:#08B9E0;}
	.st1{fill:#FEFEFE;}
	.st2{fill:#FFFFFF;}
	.st3{fill:#FCFCFC;}
	.st4{fill:#FDFDFD;}
</style>
<path class="st0" d="M234.5,1458.6c-25.3,0-50.6,0.5-75.8-0.1c-54.1-1.3-86.6-33.2-86.9-86.7c-0.2-44.7-8.2-91.3,26.5-129.3
	c7.3-8,4.9-20.1,5.3-30.6c2.8-68.8,49.9-115.4,121.4-120.1c76.2-5,133.7,37.1,144.8,106.3c4.3,27.1,12.6,51.8,24.8,77.1
	c21.3,44.3,19.7,92.8-0.9,137.6c-13.6,29.5-40,45.5-73.9,45.6c-28.4,0.1-56.9,0-85.3,0C234.5,1458.6,234.5,1458.6,234.5,1458.6z"/>
<path class="st1" d="M363,1341.5c0,8.4-0.1,16.8,0,25.3c0.2,22.5-4.2,44.8-29,50c-25.5,5.3-53.3,14.2-73.3-16.9
	c-11.4-17.7-23.8-31.3-20.9-55.9c3.5-29.6-25.8-55.1-54.1-53.6c-27.5,1.5-49.5,26.1-49.5,55.5c0,7.3,1.9,15,0.1,21.8
	c-2.2,8.1-8.2,16.2-17.8,14.9c-9.4-1.3-8.4-10.8-8.6-17.9c-0.4-13.7-0.5-27.4-0.2-41.1c1.1-43.9,17.6-60.2,62.2-60.9
	c37.9-0.5,75.8-0.2,113.6-0.1C354.1,1262.5,363,1271.6,363,1341.5z"/>
<path class="st2" d="M234.2,1224.1c-22.1,0-44.1-0.1-66.2,0c-21.1,0.2-28-9.9-23.5-30.2c7.9-35.6,47.6-64,90.7-64.3
	c50.7-0.3,85.1,22.7,93.8,62.7c4.7,21.5-3.1,32.1-25.6,31.8C280.4,1223.9,257.3,1224.1,234.2,1224.1z"/>
<path class="st3" d="M186,1421.5c-9.6-4.6-27.7,6.3-27.8-9.7c-0.1-13.3,16.8-16.3,29.7-15.7c11.3,0.5,28.2,1.8,27.7,14
	C214.8,1427.9,196.1,1417,186,1421.5z"/>
<path class="st0" d="M303.4,1325.8c-7.4,0-14.8,0.4-22.1-0.1c-11.3-0.7-26,1-28.1-14c-2.3-16.8,12.5-20.5,25.1-22.2
	c18.8-2.6,37.9-3.4,56.5,1.6c9.4,2.6,18.7,7.6,17.9,19.1c-0.8,11.9-10.9,14.5-20.8,15.1c-9.4,0.6-19,0.1-28.4,0.1
	C303.4,1325.5,303.4,1325.6,303.4,1325.8z"/>
<path class="st0" d="M284.3,1376.5c-12.8-1.8-31.3,2.2-31.2-17.2c0.1-19.2,17.9-20.8,33-20.6c14.5,0.1,33.8-0.6,33,19.5
	C318.3,1377.7,298.7,1375.1,284.3,1376.5z"/>
<g>
	<path class="st0" d="M253.7,420.6c-36.8,0-73.7,1.1-110.5-0.3c-51.7-2-78.4-37.5-66.1-87.1c3.3-13.3,2.3-23.5-5.4-35.4
		c-24.5-37.9-19.5-69.4,14.8-96.8c11.3-9,18.3-18.6,22.1-32.8c17.1-63.4,77.9-93.5,138.4-68.3c16.1,6.7,30.9,8.7,48.5,7.5
		c40.6-2.7,74.6,12.8,94.6,49.8c10.2,18.8,22,35,38.1,49.3c33.6,29.9,35.7,53.9,8.6,90.4c-8.9,12-7.9,21.8-4.3,34.9
		c13.2,48.3-15.2,86.3-65.2,88.9c-2.1,0.1-4.2,0.1-6.3,0.1c-35.8,0-71.5,0-107.3,0C253.7,420.7,253.7,420.6,253.7,420.6z"/>
	<path class="st2" d="M282.4,285.2c-54.9,3.9-107.2,3.7-159.5,0.4c-14.6-0.9-25.4-10.3-26.9-26.5c-1.5-15.8,5.8-27.1,20.5-31.7
		c21.5-6.8,27.8-21.4,29.6-42.8c4-47.4,52.5-71.4,93.1-46.1c15.4,9.6,28.6,14.1,46.9,9c36.4-10.2,67.4,7.1,78.2,43.9
		c5.1,17.4,10.3,30.6,29.6,36.3c13.6,4,23.8,15,20.4,31.4c-3.3,16-13.8,26.5-30.5,27.5c-17.3,1.1-34.7,0.2-55.5-2.6
		c32.6-17.4,29.3-34.9,8.1-55.7c-27.2-26.7-35.3-28-59.9-4.6C249,249.9,249.1,251,282.4,285.2z"/>
	<path class="st4" d="M252.8,382.7c-35.7,0-71.4,0-107.1,0c-17.4,0-32.8-5.3-34.3-24.8c-1.6-20.8,13.5-31.2,31.8-31.4
		c75.6-1,151.2-0.7,226.8,0c16.8,0.2,27.8,10.4,27.6,28.1c-0.2,17.7-11.5,27.2-28.3,27.5c-38.8,0.7-77.7,0.2-116.5,0.2
		C252.8,382.4,252.8,382.6,252.8,382.7z"/>
	<path class="st0" d="M203.7,272.2c-18.9-6.5-32.6-23.1-44.1-40.2c-10.3-15.4,5.8-21.5,15.8-28.5c9.9-7,8.2-18.8,12.1-28.3
		c3.7-9,8.2-17.8,19.9-17c9.8,0.7,15,8.4,16.8,16.7c3.4,16.1,9.2,29.6,24.9,37.8c3.5,1.8,5.9,8.9,5.9,13.5
		C255.1,237.3,217.3,272.1,203.7,272.2z"/>
	<path class="st0" d="M297.7,369c-18.8,0-37.7,0.6-56.5-0.3c-8.8-0.4-16.5-5.2-15.7-15.9c0.6-8.7,7.5-13.2,15.1-13.3
		c37.7-0.6,75.4-0.7,113-0.1c8.8,0.1,16.6,5.3,15.7,15.9c-1,10.4-9.6,13.5-18.2,13.8c-17.8,0.6-35.6,0.2-53.4,0.2
		C297.7,369.3,297.7,369.1,297.7,369z"/>
	<path class="st0" d="M165.1,369.6c-10.5-0.8-22.3-2-21.9-16.3c0.4-12,11-14.3,20.9-14.4c11,0,22.8,1.8,22.3,16.1
		C186.2,367,175.5,368.8,165.1,369.6z"/>
</g>
</svg>
