<?xml version="1.0" encoding="utf-8"?>
<!-- Generator: Adobe Illustrator 26.0.0, SVG Export Plug-In . SVG Version: 6.00 Build 0)  -->
<svg version="1.1" id="Capa_1" xmlns="http://www.w3.org/2000/svg" xmlns:xlink="http://www.w3.org/1999/xlink" x="0px" y="0px"
	 viewBox="0 0 1080 1080" style="enable-background:new 0 0 1080 1080;" xml:space="preserve">
<style type="text/css">
	.st0{fill:#FBFCFD;}
	.st1{fill:#298492;}
	.st2{fill:#DDDD42;}
	.st3{fill:#21B5D8;}
	.st4{fill:#D9E9EC;}
</style>
<g>
	<path class="st0" d="M542.2,10.3c293.5,0.8,529.2,238,528.2,531.6c-1,292.6-240.1,529.5-532.5,527.8
		C244.4,1067.9,9,830.8,9.6,537.5C10.2,244.8,247.9,9.6,542.2,10.3z M630.5,581.1c-1.5-3.9-2.9-7.8-4.4-11.7
		c39.6-27.2,46.3-79.8,89.9-106.1c20.6-12.4,22.2-43.9,7.2-64.7c-18.2-25.3-18.2-52.3-20-80.6c-6.2-96.2-73.2-162.5-163-162.4
		c-89.6,0.1-156.5,66.2-163.5,162.4c-2,28.1-2.4,54.7-19.9,80.6c-17.9,26.4-11,58.2,16.9,74.7c42,24.9,44.2,75.7,80.4,103.6
		c-24.6,4-45.1,3.7-65.5,4c-73.7,1-116.6,43.5-117.2,116.5c-0.4,44.2,0.7,88.4-0.3,132.6c-0.5,25.6,8.4,36.9,35.6,36.8
		c156.2-0.8,312.4-0.7,468.6,0c24.4,0.1,34-9.2,33.5-33.4c-0.9-48.9,0.8-97.9-0.5-146.8c-1.7-63.9-39.6-102-103.8-105.3
		C679.9,580.1,655.1,581.1,630.5,581.1z"/>
	<path class="st1" d="M630.5,581.1c24.7,0,49.4-1.1,74.1,0.2c64.1,3.3,102.1,41.4,103.8,105.3c1.3,48.9-0.3,97.8,0.5,146.8
		c0.4,24.1-9.1,33.5-33.5,33.4c-156.2-0.6-312.4-0.7-468.6,0c-27.2,0.1-36.2-11.2-35.6-36.8c0.9-44.2-0.1-88.4,0.3-132.6
		c0.6-73,43.5-115.5,117.2-116.5c20.5-0.3,40.9,0,65.5-4c-36.2-27.9-38.4-78.7-80.4-103.6c-27.8-16.5-34.7-48.3-16.9-74.7
		c17.5-25.9,17.9-52.5,19.9-80.6c7-96.2,73.9-162.3,163.5-162.4c89.8-0.1,156.8,66.2,163,162.4c1.8,28.3,1.8,55.3,20,80.6
		c15,20.9,13.3,52.3-7.2,64.7c-43.6,26.4-50.3,78.9-89.9,106.1C627.5,573.3,629,577.2,630.5,581.1z M650.6,429.5
		c13.4-47.2-33.6-63.4-58.9-89.5c-17.9-18.5-34.3,13-53,17.7c-10.6,2.7-20.2,8.7-30.5,12.8c-12.5,5.1-23.1,9-13.2,26.9
		c7.7,14.1,10.2,35-8.8,40c-19.4,5.1-19.4-15.3-20.6-29.1c-1-12.5-8.4-15.1-19.1-15.2c-9.1-0.1-15.3,3.2-16.6,12.6
		c-9.8,72.2,14.7,153.2,105.4,159C605.2,569.1,649.6,517.3,650.6,429.5z M407.4,319.6c-2,43.5,1.3,46.6,44.9,35
		c22.8-6.1,47.9-10.6,66.5-23.6c46.6-32.8,88.5-57.4,123.1,13.2c3.6,7.5,13.6,15.3,23.9,10.4c10.5-5,6.8-16.4,7-25.4
		c2.2-78.1-53.4-139.9-127.9-142.5C470.4,184,411,241.5,407.4,319.6z M302.6,740.6c-0.1,0-0.1,0-0.2,0c0,20.5,1.2,41-0.3,61.4
		c-2.4,31.9,15.7,35.7,41.3,34.8c40.9-1.6,29.8-32.1,32.8-55.2c1.4-10.5,0.3-24.8,15.8-23.6c11.3,0.8,11.9,12.9,12.8,22.3
		c0.5,6.3,0.4,12.6,0.6,18.9c0.5,16.1,0.7,34.4,21.9,35.7c29.2,1.7,60.1,10.1,87.3-6c9.7-5.7,1.8-17.1-5.7-23.5
		c-39.6-33.6-90.6-52.9-112.5-108.6c-6.2-15.9-14.6-25.6-7.8-42.8c4.7-11.9,21.1-24.9,6.2-37.4c-11-9.2-27.1-3.2-41-0.5
		c-34.9,6.8-50.5,29-51.1,63.2C302.3,699.6,302.6,720.1,302.6,740.6z M775.1,743.5c-0.2,0-0.5,0-0.7,0c0-22.1,2-44.4-0.4-66.2
		c-4.3-38-28.3-58.6-65.3-64c-15.2-2.2-32.9-0.1-24.5,21.3c25.3,64.5-16.6,97.8-58.2,131.4c-17.2,13.8-36.4,25-53.7,38.8
		c-13.9,11.1-18,25.8,4.4,29.6c27.8,4.8,57.8,8.3,84.1-2.2c21.5-8.5,9.7-33.7,13.3-51.3c2.2-10.9,2.8-24,18-22.5
		c11.2,1.1,13,12.2,14,21.7c0.8,7.8,1.3,15.8,1,23.6c-0.9,24.6,11,33.6,34.9,32.4c23.9-1.2,34-12.5,33.3-35.8
		C774.6,781.4,775.1,762.5,775.1,743.5z M570.1,753.2c30.5-13.2,79.9-13,52.4-65.4c-6.9-13.1,4.2-19.9,16.4-21.9
		c14.3-2.4,19.1-10.2,13-23.1c-5.9-12.3-9-28.4-26.2-30.3c-16.4-1.8-20.9,11-24.2,23.5C590.9,675.1,580.5,714.2,570.1,753.2z
		 M510.3,756.1c-10.8-40.3-21.4-80.5-32.3-120.7c-3.4-12.5-7.5-24.8-24.5-22.5c-15.3,2.1-18.2,15.7-23.7,26.5
		c-7.4,14.5-3.8,23.7,13.2,26.6c9.8,1.7,21.5,8.5,15.7,18.1C429.3,733.6,474.5,739.7,510.3,756.1z M577.3,611.4
		c-6.1-28.4-29.6-10.5-44.5-14c-16.5-3.9-33.3-2.8-27.7,21.9c4.8,20.8,7.7,46.5,37.9,43.6C571.9,660.2,569.7,633,577.3,611.4z"/>
	<path class="st0" d="M650.6,429.5c-1,87.8-45.4,139.7-115.1,135.2c-90.7-5.8-115.2-86.8-105.4-159c1.3-9.4,7.5-12.7,16.6-12.6
		c10.6,0.1,18,2.7,19.1,15.2c1.2,13.8,1.1,34.2,20.6,29.1c19-5,16.5-25.9,8.8-40c-9.8-17.9,0.7-21.8,13.2-26.9
		c10.2-4.1,19.9-10.1,30.5-12.8c18.7-4.7,35.1-36.2,53-17.7C617,366.1,664,382.3,650.6,429.5z M597.3,439.1
		c14.5-2.5,15.5-13.8,15.5-24.9c0-11.2-1.3-23.8-16.4-23.3c-14.4,0.5-16.2,12.7-16.3,24.1C580,427,583.4,436.9,597.3,439.1z"/>
	<path class="st2" d="M407.4,319.6c3.6-78.1,63-135.6,137.6-132.9c74.5,2.6,130,64.5,127.9,142.5c-0.2,9,3.4,20.4-7,25.4
		c-10.3,4.9-20.3-2.9-23.9-10.4c-34.6-70.7-76.5-46-123.1-13.2c-18.6,13.1-43.7,17.5-66.5,23.6C408.8,366.2,405.5,363.1,407.4,319.6
		z"/>
	<path class="st3" d="M302.6,740.6c0-20.5-0.3-41,0.1-61.4c0.6-34.2,16.3-56.4,51.1-63.2c14-2.7,30.1-8.6,41,0.5
		c14.9,12.5-1.5,25.5-6.2,37.4c-6.8,17.2,1.5,26.9,7.8,42.8c21.9,55.7,73,75,112.5,108.6c7.5,6.4,15.3,17.8,5.7,23.5
		c-27.2,16.1-58,7.7-87.3,6c-21.1-1.2-21.4-19.5-21.9-35.7c-0.2-6.3-0.1-12.6-0.6-18.9c-0.8-9.4-1.5-21.5-12.8-22.3
		c-15.6-1.1-14.5,13.1-15.8,23.6c-3,23.1,8.1,53.7-32.8,55.2c-25.6,1-43.7-2.8-41.3-34.8c1.5-20.4,0.3-40.9,0.3-61.4
		C302.5,740.6,302.5,740.6,302.6,740.6z"/>
	<path class="st3" d="M775.1,743.5c0,18.9-0.4,37.9,0.1,56.8c0.7,23.3-9.4,34.6-33.3,35.8c-23.9,1.2-35.8-7.8-34.9-32.4
		c0.3-7.9-0.2-15.8-1-23.6c-1-9.5-2.8-20.6-14-21.7c-15.2-1.5-15.8,11.7-18,22.5c-3.6,17.6,8.2,42.8-13.3,51.3
		c-26.4,10.5-56.4,6.9-84.1,2.2c-22.4-3.8-18.3-18.5-4.4-29.6c17.2-13.8,36.5-25,53.7-38.8c41.7-33.6,83.5-66.9,58.2-131.4
		c-8.4-21.4,9.4-23.5,24.5-21.3c37,5.4,61,26,65.3,64c2.4,21.8,0.4,44.1,0.4,66.2C774.6,743.5,774.8,743.5,775.1,743.5z"/>
	<path class="st4" d="M570.1,753.2c10.4-39.1,20.8-78.2,31.3-117.2c3.4-12.5,7.9-25.3,24.2-23.5c17.2,1.9,20.3,17.9,26.2,30.3
		c6.2,12.9,1.4,20.8-13,23.1c-12.2,2-23.3,8.8-16.4,21.9C649.9,740.3,600.6,740.1,570.1,753.2z"/>
	<path class="st4" d="M510.3,756.1c-35.8-16.4-81-22.6-51.5-72c5.8-9.7-5.9-16.4-15.7-18.1c-17-3-20.7-12.1-13.2-26.6
		c5.5-10.8,8.5-24.4,23.7-26.5c17-2.3,21.1,10,24.5,22.5C488.9,675.6,499.6,715.9,510.3,756.1z"/>
	<path class="st4" d="M577.3,611.4c-7.6,21.6-5.4,48.8-34.3,51.5c-30.1,2.9-33.1-22.8-37.9-43.6c-5.6-24.7,11.2-25.8,27.7-21.9
		C547.7,600.9,571.2,583,577.3,611.4z"/>
	<path class="st1" d="M597.3,439.1c-13.9-2.3-17.3-12.2-17.2-24c0.1-11.5,1.8-23.6,16.3-24.1c15.1-0.6,16.4,12.1,16.4,23.3
		C612.8,425.3,611.8,436.7,597.3,439.1z"/>
</g>
</svg>
