<?xml version="1.0" encoding="utf-8"?>
<!-- Generator: Adobe Illustrator 26.0.0, SVG Export Plug-In . SVG Version: 6.00 Build 0)  -->
<svg version="1.1" id="Capa_1" xmlns="http://www.w3.org/2000/svg" xmlns:xlink="http://www.w3.org/1999/xlink" x="0px" y="0px"
	 viewBox="0 0 1080 1080" style="enable-background:new 0 0 1080 1080;" xml:space="preserve">
<style type="text/css">
	.st0{fill:#F7FAFC;}
	.st1{fill:#0E7FA4;}
	.st2{fill:#28BADF;}
	.st3{fill:#13A5D4;}
	.st4{fill:#DCDC41;}
</style>
<g>
	<path class="st0" d="M61.3,717.6C20.2,588.9,25.1,461.4,71.6,335c0,0,0.5-1.1,0.5-1.1c2.6-5.4,5.2-10.9,7.7-16.3
		c0,0,1.1-2.6,1.1-2.6c2.7-5.2,5.5-10.5,8.2-15.8c0,0,1-2.1,1-2.1C173.6,156.8,295.8,70.5,454.8,35.4c5.8-0.7,11.5-1.5,17.2-2.2
		c48.6,0.3,97.2,0.7,145.8,1c2.2,1.9,4.7,2.3,7.5,1.2c8.5,6.7,18.2,7.8,28.5,6.4c5.1,1,10.3,2,15.4,3c5.8,6.1,13.1,7.4,21.1,6.4
		c2.4,2.1,5.2,2.8,8.3,2.2c5,6,11.5,7.9,19,7.1c2,2.1,4.4,2.9,7.2,2.3c3.5,1.7,7,3.4,10.5,5.1c3.3,1.2,6.6,2.3,9.9,3.5
		c2.6,1.5,5.3,3.1,8,4.6c9.7,4.5,19.3,8.9,29,13.4c2.5,1.6,5,3.2,7.5,4.9c3.1,1.5,6.2,3.1,9.3,4.6c3.1,2,6.2,3.9,9.2,5.9
		c90.7,60.7,158.7,140.7,204,240c1.6,3.2,3.2,6.4,4.8,9.6c-0.6,3.1,0.2,5.8,2.5,8c-1.1,7.4,1.1,13.5,6.9,18.3c0.8,3,1.6,6.1,2.4,9.1
		c-1.3,7.7,0.5,14.3,6.3,19.7c1,5.6,2.1,11.2,3.1,16.8c-1.6,8-0.3,15.3,5.7,21.3c0.5,4.7,1.1,9.4,1.6,14.1
		c1.2,71,4.8,141.8-15.4,211.6C937.3,994,585.3,1141.6,292.1,982.1c-9.2-5-19-9.1-28.5-13.7c-30.6-24.2-65.1-43.6-91.7-72.9
		c-23.5-32.4-47-64.9-70.5-97.3c-1.9-3-3.9-5.9-5.8-8.9c-1.8-2.8-3.6-5.6-5.4-8.4c-1.5-3.4-3-6.7-4.6-10.1c-1.5-2.6-3.1-5.2-4.6-7.8
		c-1.4-3.4-2.8-6.9-4.1-10.3c-1.6-2.9-3.1-5.8-4.7-8.7c-1.1-3.1-2.3-6.2-3.4-9.3c-1.7-3.6-3.4-7.2-5.2-10.8
		C64.4,721.3,63.6,719.2,61.3,717.6z M540.3,874.7c93.8,0,187.7,0.5,281.5-0.2c60.1-0.5,87.5-25.5,88-85
		c1.4-148.3,1.4-296.6,0-444.9c-0.5-59.9-27.7-84-88.1-84.2c-101.4-0.4-202.8-0.3-304.2,0.1c-20.3,0.1-40.5,0.3-52.9-18.6
		c-24.2-36.8-59.4-41.3-99.2-38.9c-36.2,2.2-72.6-0.1-108.9,0.7c-59.5,1.3-85.7,26.7-86,86.8c-0.8,165-0.7,330-0.1,495
		c0.3,62.9,26.1,88.6,88.3,89.1C352.7,875.3,446.5,874.7,540.3,874.7z"/>
	<path class="st1" d="M540.3,874.7c-93.8,0-187.7,0.5-281.5-0.2c-62.2-0.5-88-26.2-88.3-89.1c-0.7-165-0.7-330,0.1-495
		c0.3-60.1,26.5-85.5,86-86.8c36.3-0.8,72.7,1.5,108.9-0.7c39.8-2.4,75,2.1,99.2,38.9c12.4,18.9,32.6,18.7,52.9,18.6
		c101.4-0.4,202.8-0.4,304.2-0.1c60.4,0.2,87.6,24.3,88.1,84.2c1.4,148.3,1.3,296.6,0,444.9c-0.5,59.5-27.9,84.5-88,85
		C728,875.3,634.2,874.7,540.3,874.7z M789.8,385.8c-177.1-6.7-354.2-2.5-531.3-2.2c-38.8,0.1-57.9,21.5-57.9,60.3
		c0.1,113.6-0.2,227.2,0.3,340.8c0.2,37.7,17.4,59.4,58.2,59.1c177.1-1,354.3-1.4,531.5-2c78.5,3.3,89.1-6.7,89.2-85.7
		c0.1-96.6,0.3-193.1-0.1-289.7C879.4,393.9,863,379.4,789.8,385.8z M540.1,355.8c0-0.7,0-1.4,0-2.1c101.4,0,202.7,0,304.1,0
		c11.2,0,25.4,9.4,32-6.4c6.4-15.5-0.4-29.6-11.4-41.3c-15.2-16.1-35.3-15.3-55-15.3c-90.8-0.1-181.6-1.3-272.4,0.5
		c-42.5,0.8-81.4-1.6-109.2-39.6c-7.2-9.9-18.7-15.7-31.6-15.7c-49.9-0.2-99.9-0.7-149.8,0.2c-21.8,0.4-38.5,12.1-42.5,34.1
		c-4.9,26.6-8.5,54,2.4,80.1c3.3,7.8,12.7,5.6,20.3,5.6C331.4,355.7,435.8,355.8,540.1,355.8z"/>
	<path class="st2" d="M790.5,841.9c-177.2,0.6-354.3,1-531.5,2c-40.7,0.2-58-21.5-58.2-59.1c-0.5-113.6-0.2-227.2-0.3-340.8
		c0-38.8,19.1-60.2,57.9-60.3c177.1-0.3,354.2-4.5,531.3,2.1C790,537.8,790.3,689.8,790.5,841.9z M539.9,763.6
		c38.8,5.6,66.3-1.9,61.3-50.7c-3.5-33.7,21-35.2,45-34c54.2,2.6,43.9-36.6,45.5-68.7c1.6-33.2-0.7-62.5-46.3-57.4
		c-33.3,3.7-48.1-11.8-44.7-44.7c4.8-45.5-24.2-47.2-57.5-46.5c-34.2,0.7-70.4-4.3-64.9,48.8c3.2,30.6-10.7,46-42.1,42.3
		c-44.5-5.1-49.1,21.7-47.5,56.2c1.6,34.3-7.7,74.3,48.7,70c24.1-1.8,43.6,4.3,40.6,33.9C473.1,761.3,500.9,769.2,539.9,763.6z"/>
	<path class="st3" d="M540.1,355.8c-104.3,0-208.7-0.1-313,0.1c-7.6,0-17.1,2.2-20.3-5.6c-10.9-26.1-7.3-53.6-2.4-80.1
		c4.1-22,20.8-33.7,42.5-34.1c49.9-0.9,99.8-0.4,149.8-0.2c12.9,0.1,24.4,5.8,31.6,15.7c27.8,38.1,66.7,40.4,109.2,39.6
		c90.8-1.7,181.6-0.5,272.4-0.5c19.7,0,39.9-0.8,55,15.3c11,11.7,17.8,25.8,11.4,41.3c-6.5,15.8-20.8,6.4-32,6.4
		c-101.4,0-202.7,0-304.1,0C540.1,354.3,540.1,355,540.1,355.8z"/>
	<path class="st3" d="M790.5,841.9c-0.2-152-0.5-304.1-0.7-456.1c73.2-6.3,89.6,8.1,89.9,80.7c0.3,96.6,0.2,193.1,0.1,289.7
		C879.6,835.1,869,845.2,790.5,841.9z"/>
	<path class="st1" d="M539.9,763.6c-39,5.5-66.8-2.3-61.9-50.9c3-29.6-16.5-35.7-40.6-33.9c-56.4,4.3-47.1-35.7-48.7-70
		c-1.6-34.5,3-61.3,47.5-56.2c31.4,3.6,45.3-11.7,42.1-42.3c-5.5-53.1,30.7-48.1,64.9-48.8c33.3-0.7,62.3,1,57.5,46.5
		c-3.5,32.9,11.3,48.4,44.7,44.7c45.6-5.1,47.9,24.2,46.3,57.4c-1.5,32.2,8.7,71.3-45.5,68.7c-24.1-1.1-48.5,0.3-45,34
		C606.2,761.7,578.7,769.3,539.9,763.6z M538.4,736.1c29.9,5.1,37.8-11.9,34.4-37.1c-5.4-40.5,12.1-55.3,51.3-50.6
		c23.5,2.8,40.5-1.8,40.5-32.9c0-29.7-13.9-37.3-39-34.5c-37.6,4.2-58-7.9-52.9-49.7c2.7-22.2,1-41.2-31.2-42
		c-33.2-0.7-38.5,16.6-35.5,42.4c4.4,36.5-8.9,54-47.6,49.4c-25.7-3.1-43.3,2.6-42.5,35.7c0.8,31.9,19.9,34,42.1,31.5
		c37.6-4.2,52.8,10.5,48.2,48.4C503.5,719.2,505.4,741.1,538.4,736.1z"/>
	<path class="st4" d="M538.4,736.1c-33,5-34.9-16.9-32.2-39.4c4.6-37.8-10.6-52.6-48.2-48.4c-22.2,2.5-41.3,0.4-42.1-31.5
		c-0.8-33.1,16.8-38.8,42.5-35.7c38.6,4.7,51.9-12.9,47.6-49.4c-3.1-25.8,2.2-43.1,35.5-42.4c32.2,0.7,33.9,19.7,31.2,42
		c-5,41.8,15.3,54,52.9,49.7c25.1-2.8,39,4.8,39,34.5c0,31.1-17,35.7-40.5,32.9c-39.2-4.6-56.7,10.2-51.3,50.6
		C576.2,724.2,568.4,741.2,538.4,736.1z"/>
</g>
</svg>
