<?xml version="1.0" encoding="utf-8"?>
<!-- Generator: Adobe Illustrator 26.0.0, SVG Export Plug-In . SVG Version: 6.00 Build 0)  -->
<svg version="1.1" id="Capa_1" xmlns="http://www.w3.org/2000/svg" xmlns:xlink="http://www.w3.org/1999/xlink" x="0px" y="0px"
	 viewBox="0 0 1080 1080" style="enable-background:new 0 0 1080 1080;" xml:space="preserve">
<style type="text/css">
	.st0{fill:#FAFCFD;}
	.st1{fill:#348A98;}
	.st2{fill:#2F9FB4;}
	.st3{fill:#D8DA43;}
</style>
<g>
	<path class="st0" d="M721.3,1029.1c-34.8,8.8-69.6,17.5-104.4,26.3c-5.6,0.5-11.3,1-16.9,1.5c-40.7-0.2-81.3-0.5-122-0.7
		c-214.2-38.5-363.2-156.1-431-365.3C-6.1,527,25.3,370.7,121.2,232.5C180.4,147.3,267,87.4,366.2,50c17-2.5,33.8-5.7,48.5-15.6
		c5.5-0.9,11-1.9,16.6-2.8c62.2-10.4,124.8-9,187.4-7.4c2.3,1.9,4.9,2.2,7.6,1c21.1,10,43.7,13.4,66.6,16.2c2.6,2.1,5.5,2.8,8.8,2
		c4.9,5.9,11.1,8.4,18.8,7.1c33.4,16.1,66.8,32.2,100.1,48.2c23.6,18.4,47.3,36.8,70.8,55.2c128.9,129.5,184.1,284.7,163,466.7
		C1019,818.5,903.2,950.9,721.3,1029.1z M190.9,537.8c0,100.5,2.1,201-1,301.3c-1.4,46,15.3,57.6,58.7,56.8
		c135.9-2.4,272.2-6.2,407.7,1.1c83.2,4.5,133.4-33.6,177.2-93.5c40.7-55.6,56.4-118.7,59.8-186.8c1.9-37.2-7.9-63.4-44-76.3
		c-85-30.6-123.2-86.4-106.3-179.5c6.7-37.1-132.7-175.5-171.1-177.3c-1.5-0.1-3.1,0.1-4.6,0.1c-109.7,0.1-219.4,1.3-329-0.3
		c-36.3-0.5-48.8,12.1-48.2,48.4C192.1,333.8,190.9,435.8,190.9,537.8z"/>
	<path class="st1" d="M190.9,537.8c0-102,1.2-204-0.6-306c-0.6-36.3,11.9-48.9,48.2-48.4c109.7,1.6,219.4,0.4,329,0.3
		c1.5,0,3.1-0.2,4.6-0.1c38.3,1.9,177.8,140.3,171.1,177.3c-16.9,93.1,21.3,149,106.3,179.5c36,13,45.8,39.1,44,76.3
		c-3.4,68.1-19.1,131.2-59.8,186.8c-43.9,59.9-94,98-177.2,93.5c-135.5-7.3-271.8-3.5-407.7-1.1c-43.5,0.8-60.2-10.9-58.7-56.8
		C193,738.7,190.9,638.2,190.9,537.8z M580,350.6l0.1,0.1c-4-43.5,10.1-88.3-9.9-130.5l1.3,1c-39.5-19.9-81.9-10.4-122.7-9.6
		c-73.5,1.5-147.7-10.6-220.7,7.3l-1.3,0.9c-9.9,13.5-8.7,29.3-8.7,44.6c-0.1,182.4-0.1,364.8,0,547.2c0,16.8-2,34.3,10.4,48.6
		l-0.3-0.2c15,10.2,32.1,8.7,48.9,8.7c108.6,0.1,217.3,0.2,325.9,0c16.7,0,33.9,1.8,49.1-7.8c1.9-37.9-22.5-45.1-52.9-45.1
		c-92.7,0-185.4,0.1-278.1-0.3c-14.5-0.1-37.4,4.8-37.7-15.6c-0.3-21,22.6-15.9,37-16c83.4-0.4,166.9,0.2,250.3-0.1
		c9.9,0,24.9,4.6,27.3-9.4c1.5-9.1-5.1-20.4-10.1-29.6c-9.2-17-26.5-13-41.5-13c-74.2-0.3-148.3,0.3-222.5-0.6
		c-15.1-0.2-40.6,7.9-40.1-17c0.4-20.3,24.2-13.7,38.4-13.8c69.5-0.7,139.1,0.3,208.6-0.7c14.4-0.2,37.5,9.7,37.8-19.3
		c0.3-25.4-13.1-33.9-38.2-33.4c-68,1.3-136,0.9-203.9,0.1c-15.6-0.2-41.7,7.7-42.6-14.6c-1-24.6,25.5-15.5,40.4-15.8
		c57.1-1.1,114.3-0.6,171.5-0.4c32.8,0.1,70.4,9.9,70.2-44.4c-0.1-12.4,16.4-17.2,26.8-23.7c26.2-16.3,52.6-32.4,78.9-48.5
		c33.1-20.3,49.6-74.7,34.8-122.1c-11-35.3-43.5-9.2-63.5-20C622.8,348.7,601.1,352.6,580,350.6z M860,640.4
		c-0.6-29.1,1.3-51.4-20.3-69.3c-77.2-63.8-111-67.4-196.3-17c-8,4.7-15.7,9.9-23.6,14.7c-16,9.6-23.2,23.7-23.8,42.3
		c-2.7,92.5,31.9,168.5,101,229.3c20.5,18.1,39.4,19,61.1-0.4C819.7,784.8,856.3,717.8,860,640.4z M650.2,329.9
		c5.9-2.7,22.1,5.3,24.5-13.5c1.3-10.3-48.8-61.6-59.5-60.2c-20.9,2.7-14.3,20.2-15.1,32.5C598.2,320.7,615.7,332.8,650.2,329.9z"/>
	<path class="st0" d="M643.1,357.9c20,10.8,52.5-15.2,63.5,20c14.8,47.4-1.6,101.8-34.8,122.1c-26.3,16.1-52.7,32.2-78.9,48.5
		c-10.4,6.4-26.8,11.3-26.8,23.7c0.2,54.3-37.4,44.5-70.2,44.4c-57.2-0.1-114.4-0.7-171.5,0.4c-14.9,0.3-41.5-8.8-40.4,15.8
		c0.9,22.3,27,14.4,42.6,14.6c68,0.8,136,1.3,203.9-0.1c25.2-0.5,38.6,8,38.2,33.4c-0.4,29-23.4,19.1-37.8,19.3
		c-69.5,0.9-139.1,0-208.6,0.7c-14.2,0.1-38-6.5-38.4,13.8c-0.5,24.8,25,16.8,40.1,17c74.2,0.9,148.3,0.3,222.5,0.6
		c15,0.1,32.2-4,41.5,13c5,9.2,11.6,20.5,10.1,29.6c-2.3,14-17.4,9.3-27.3,9.4c-83.4,0.3-166.9-0.2-250.3,0.1
		c-14.4,0.1-37.3-5-37,16c0.3,20.4,23.2,15.5,37.7,15.6c92.7,0.4,185.4,0.3,278.1,0.3c30.4,0,54.7,7.2,52.9,45.1
		c-141.3-0.3-282.6-0.6-423.9-0.9c0,0,0.3,0.2,0.3,0.2c-0.6-213.5-1.1-427-1.7-640.5c0,0,1.3-0.9,1.3-0.9
		c114.4,0.8,228.9,1.5,343.3,2.3c0,0-1.3-1-1.3-1c4.6,43.4-11.1,88.4,9.9,130.5c0,0-0.1-0.1-0.1-0.1
		C599.5,366,621.9,357.2,643.1,357.9z M471.1,317.9c-35.8-4.4-66.2-1.5-60.3,47.8c3.2,27-15,30.5-35.4,28.2
		c-39.1-4.5-42.8,19.7-40.6,48.9c2,27.1-10.8,64.7,37.6,62c30.5-1.7,41.2,9.5,39.3,39.5c-2.9,45.1,31.4,36.3,57.8,36.7
		c25.5,0.3,56.9,6.8,53.7-35.6c-2.2-28.5,5.8-43.1,37.9-40.5c48.4,4,37.5-33,38.7-60.5c1.2-27.2,2.9-55-38.4-50.5
		c-22.3,2.4-41.5-1.1-37.7-30.6C529.1,321.3,506.7,312.1,471.1,317.9z"/>
	<path class="st2" d="M860,640.4c-3.7,77.4-40.3,144.4-101.8,199.7c-21.6,19.4-40.5,18.5-61.1,0.4c-69.1-60.8-103.7-136.8-101-229.3
		c0.5-18.6,7.8-32.6,23.8-42.3c7.9-4.8,15.6-10,23.6-14.7c85.2-50.5,119.1-46.9,196.3,17C861.4,588.9,859.4,611.2,860,640.4z
		 M831,637.3c-3.5-7-4.4-12.3-7.5-14.6c-7.4-5.5-15-2.2-20.5,3.7c-11.5,12.3-22.5,25.1-33.3,38c-40.8,48.8-40.4,48.6-83.3,4.9
		c-9.7-9.9-20.1-31.8-36-17.2c-16.1,14.8,6.6,25.5,14.1,37.3c1.6,2.6,3.9,4.8,5.9,7c64.6,69.9,50.8,72.4,114.7-3.2
		C800.8,674.6,816,655.6,831,637.3z"/>
	<path class="st2" d="M226.8,219.8c0.6,213.5,1.1,427,1.7,640.5c-12.4-14.3-10.4-31.8-10.4-48.6c-0.2-182.4-0.1-364.8,0-547.2
		C218.2,249.2,216.9,233.4,226.8,219.8z"/>
	<path class="st2" d="M650.2,329.9c-34.5,2.9-52-9.2-50-41.2c0.8-12.3-5.9-29.7,15.1-32.5c10.7-1.4,60.8,49.9,59.5,60.2
		C672.3,335.3,656.1,327.2,650.2,329.9z"/>
	<path class="st2" d="M228.3,860.1c141.3,0.3,282.6,0.6,423.9,0.9c-15.3,9.6-32.4,7.8-49.1,7.8c-108.6,0.2-217.3,0.1-325.9,0
		C260.4,868.8,243.3,870.3,228.3,860.1z"/>
	<path class="st2" d="M571.5,221.2c-114.4-0.8-228.9-1.5-343.3-2.3c73-17.9,147.1-5.8,220.7-7.3C489.5,210.8,532,201.3,571.5,221.2z
		"/>
	<path class="st2" d="M580.1,350.7c-21-42.2-5.3-87.1-9.9-130.5C590.3,262.4,576.1,307.2,580.1,350.7z"/>
	<path class="st2" d="M643.1,357.9c-21.2-0.7-43.5,8.2-63.1-7.3C601.1,352.6,622.8,348.7,643.1,357.9z"/>
	<path class="st1" d="M471.1,317.9c35.6-5.8,58.1,3.4,52.7,45.4c-3.8,29.5,15.4,33.1,37.7,30.6c41.3-4.5,39.6,23.3,38.4,50.5
		c-1.2,27.5,9.7,64.5-38.7,60.5c-32.1-2.6-40,12-37.9,40.5c3.2,42.3-28.2,35.9-53.7,35.6c-26.4-0.3-60.8,8.5-57.8-36.7
		c1.9-30-8.8-41.3-39.3-39.5c-48.4,2.7-35.6-34.9-37.6-62c-2.2-29.2,1.5-53.4,40.6-48.9c20.4,2.3,38.6-1.2,35.4-28.2
		C404.9,316.3,435.3,313.5,471.1,317.9z M568.4,449.1c1.5-20.3-10.8-26.8-28.8-25c-32.5,3.1-49.9-8.1-47.2-43.6
		c1.2-15.5,0.3-31.2-22.6-32c-24.2-0.9-29,13.1-27.4,32.2c2.5,31.1-9.5,46.3-42.3,43.5c-18-1.6-34.6,1.1-33.4,26.2
		c1.1,22.1,16.6,24,32.5,23c31.2-2,46.1,10.1,43.3,42.7c-1.5,17.7,0.5,35,25.4,34.7c25.2-0.3,25.8-18.5,24.6-35.6
		c-2.5-33.5,14.5-43.5,44.6-41.6C553.3,474.4,568.6,471.9,568.4,449.1z"/>
	<path class="st3" d="M831,637.3c-15,18.3-30.2,37.3-45.9,55.9c-63.9,75.7-50,73.1-114.7,3.2c-2.1-2.3-4.3-4.5-5.9-7
		c-7.5-11.8-30.2-22.5-14.1-37.3c15.9-14.6,26.2,7.3,36,17.2c42.9,43.8,42.6,44,83.3-4.9c10.8-12.9,21.8-25.7,33.3-38
		c5.5-5.8,13.1-9.2,20.5-3.7C826.6,625.1,827.5,630.3,831,637.3z"/>
	<path class="st3" d="M568.4,449.1c0.3,22.8-15,25.4-31.4,24.3c-30.2-2-47.1,8.1-44.6,41.6c1.2,17.1,0.6,35.3-24.6,35.6
		c-24.8,0.3-26.9-17-25.4-34.7c2.8-32.6-12.1-44.7-43.3-42.7c-15.9,1-31.4-0.9-32.5-23c-1.2-25.1,15.3-27.7,33.4-26.2
		c32.7,2.8,44.7-12.4,42.3-43.5c-1.5-19.1,3.3-33.1,27.4-32.2c22.9,0.9,23.8,16.6,22.6,32c-2.7,35.5,14.7,46.7,47.2,43.6
		C557.6,422.3,569.8,428.8,568.4,449.1z"/>
</g>
</svg>
