<?xml version="1.0" encoding="utf-8"?>
<!-- Generator: Adobe Illustrator 26.0.0, SVG Export Plug-In . SVG Version: 6.00 Build 0)  -->
<svg version="1.1" id="Capa_1" xmlns="http://www.w3.org/2000/svg" xmlns:xlink="http://www.w3.org/1999/xlink" x="0px" y="0px"
	 viewBox="0 0 420.1 120.5" style="enable-background:new 0 0 420.1 120.5;" xml:space="preserve">
<style type="text/css">
	.st0{fill:#FFFFFF;}
	.st1{fill:#36A3C5;}
	.st2{fill:url(#SVGID_1_);}
	.st3{fill:url(#SVGID_00000081636002529949054820000003973131068600492959_);}
	.st4{fill:#E3D136;}
	.st5{fill:#B8AA29;}
</style>
<g>
	<path class="st0" d="M264.7,40.8c-1.4-1.1-6.5-1.1-7.8-0.1c-0.3,0.2-0.5,0.4-0.7,0.7c-0.9,1.2-1.8,2.3-2.7,3.5
		c-3.3,4.3-6.6,8.7-9.9,13c-0.6,0.8-0.8,0.6-1.3,0c-4-5.3-8-10.5-11.9-15.8c-1.2-1.6-2.6-2.2-4.5-2.2c-0.7,0-1.4,0-2.1,0
		c-2.3,0.1-3.7,1.5-3.7,3.8c0,11.6,0,23.3,0,34.9c0,2.4,2.1,3.5,4.3,3.7c2.3,0.2,5.2,0.1,6-2.5c0.2-0.7,0.3-1.5,0.3-2.3
		c0-3.2,0-6.5,0-9.7c0-3,0-5.9,0-9.1c1.5,1.8,2.7,3.6,4,5.4c1.3,1.8,2.5,3.5,3.9,5.2c2.1,2.6,4.8,3.1,7.5,1.4
		c0.8-0.5,1.3-1.1,1.9-1.8c1.7-2.3,3.3-4.6,4.9-6.9c0.8-1.1,1.6-2.2,2.6-3.4c0,3.3,0,6.4,0,9.4c0,3.4,0,6.8,0,10.3
		c0,2.2,1.2,3.6,3.4,3.9c3.2,0.5,7.1-0.3,7.2-4.2c0-11.5,0-23,0-34.5C266,42.6,265.7,41.6,264.7,40.8z"/>
	<path class="st0" d="M420,75.3c-0.3-1.5-1.1-2.7-3-2.8c-0.9,0-2,0.1-2.3-1.1c-0.2-0.8-0.3-1.7-0.3-2.6c0-9.3,0-18.6,0-27.8
		c0-2-1-3.3-2.8-3.6c-3.1-0.4-7.2-0.2-7.2,3.9c0,9.1,0,18.1,0,27.2c0,2-0.1,4.1,0.2,6.1c0.4,2.4,1,5,3.2,6.3
		c2.6,1.5,6.4,1.7,9.4,1.4c1.6-0.2,2.7-0.8,2.8-2.5C420.1,78.6,420.3,76.8,420,75.3z"/>
	<g>
		<path class="st0" d="M363.4,43.4c-2.9-2.3-6.2-3.6-10.1-3.5c-4.4,0.1-8.7,0-13.1,0c-2.7,0-4,1.4-4,4.1c0,11,0,22,0,33
			c0,1.2-0.2,2.9,0.6,3.9c1.6,1.9,5.2,2,7.3,1.1c2.3-1,2.3-2.8,2.3-5c0-1.7,0-3.4,0-5.1c0-0.8,0.2-1,1-1.1c2.6-0.1,5.1,0.1,7.7-0.2
			c3.7-0.4,6.9-2,9.6-4.6c2.3-2.2,3.7-5,4.1-8.3C369.5,52,368,47,363.4,43.4z M353.1,60.5c-1.9,0.1-3.8,0-5.7,0
			c-0.8,0-1.1-0.3-1-1.1c0.1-1.4,0-2.7,0-4.1c0-1.4,0-2.8,0-4.2c0-0.7,0.2-0.9,0.9-0.9c2.3,0,4.6,0,7,0c2,0,4.4,2.4,4.5,4.6
			C358.9,58.8,356.2,60.3,353.1,60.5z"/>
	</g>
	<g>
		<path class="st0" d="M328.5,37.7c-1.2-0.1-2.5-0.2-3.7-0.1c-2.2,0.1-3.3,1.7-3.3,3.7c0,4.1,0,8.3,0,12.4c0,0.2,0.1,0.6-0.2,0.7
			c-0.3,0.1-0.4-0.1-0.6-0.3c-2.5-2.4-5.4-2.7-8.6-2c-3.1,0.7-5.4,2.5-7.5,4.9c-3.6,4.2-4.6,9-3.2,14.3c0.8,3,2.7,5.3,4.9,7.5
			c3.6,3.6,10.7,4.8,14.6,1.1c0.2-0.2,0.5-0.4,0.6,0c0.6,2,3.1,2.5,4.9,2.4c2.2-0.1,4.3-0.6,4.9-3c0.1-0.4,0.1-0.7,0.1-1.1
			c0-12.3,0-24.5,0-36.8C331.5,39.3,330.4,37.9,328.5,37.7z M316.2,72.2c-2.7,0-5.2-2.5-5.2-5.1c0-2.2,2-5.3,5.2-5
			c3.1-0.2,5,2.6,5,5.1C321.2,70.1,318.4,72.2,316.2,72.2z"/>
	</g>
	<g>
		<path class="st0" d="M402.1,55.5c0-1.6-1.1-3.1-2.4-3.4c-1.1-0.2-2.3-0.4-3.5-0.3c-2.4,0.3-3.5,0.7-4.3,3
			c-0.1-0.1-0.2-0.1-0.3-0.2c-2.6-2.7-5.8-3.3-9.3-2.4c-2.6,0.6-4.7,2.2-6.6,4.1c-4.3,4.2-5.6,10.6-3.5,16.2c1.1,2.8,3,5.4,5.4,7.2
			c2.6,2,5.5,2.7,8.7,2.7c2.1-0.1,4-0.7,5.5-2.4c0.6,1.4,1.5,2.2,2.9,2.3c1.7,0.2,3.8,0.3,5.5-0.3c1.4-0.5,1.8-1.8,1.8-3.2
			C402.2,71,402.1,63.2,402.1,55.5z M386.5,72.1c-2.6,0.2-5.2-2.1-5.2-5c0.1-2.8,2.2-5.1,5.3-5.1c2.9,0,4.8,2.7,4.9,5.1
			C391.7,69.5,389,72.6,386.5,72.1z"/>
	</g>
	<g>
		<path class="st0" d="M280.4,69.6c4.2,0,8.4,0,12.7,0c2.2,0,4-1.2,4.8-3.2c2-4.6-0.1-10.4-3.9-13.2c-4.3-3.2-9.1-3.3-14-2.2
			c-4.7,1.1-8.2,3.9-10.3,8.3c-1.5,3.2-1.8,6.7-1.2,10.2c0.6,3.2,2,6.2,4.3,8.5c5.1,5.1,13.5,5.3,20.1,3.5c1.3-0.3,2.6-0.9,3.4-1.9
			c1.2-1.4,1-3.7-0.2-5.5c-1.4-2.1-2.4-2.6-4.8-1.6c-1.6,0.7-3.3,0.9-5,1.1c-2.5,0.2-4.9-0.3-6.6-2.3c-0.3-0.4-0.6-0.8-0.4-1.2
			C279.5,69.4,280,69.6,280.4,69.6z M279.2,63.4c1-2.9,5.1-5,8.2-3.2c0.8,0.5,1.4,1.9,1.1,2.8c-0.3,1.1-1.2,1.3-2.1,1.3
			c-1.1,0-2.1,0-3.2,0s-2.2,0-3.3,0C279.2,64.4,278.9,64.2,279.2,63.4z"/>
	</g>
</g>
<path class="st1" d="M18.2,110.3L18.2,110.3C7.3,103.5,4,89.2,10.8,78.4l38.6-61.9c6.8-10.8,21.1-14.1,32-7.4l0,0
	c10.8,6.8,14.1,21.1,7.4,31.9l-38.7,61.9C43.3,113.7,29,117,18.2,110.3z"/>
<linearGradient id="SVGID_1_" gradientUnits="userSpaceOnUse" x1="627.8123" y1="1867.1434" x2="667.6193" y2="1758.3007" gradientTransform="matrix(0.8481 0.5298 -0.5298 0.8481 516.944 -1828.6912)">
	<stop  offset="0" style="stop-color:#E2D48D"/>
	<stop  offset="1" style="stop-color:#DDC24B"/>
</linearGradient>
<path class="st2" d="M149.8,15.4l1.8,3C151.1,17.3,150.5,16.3,149.8,15.4z"/>
<linearGradient id="SVGID_00000081610863257870334710000009658643174075499406_" gradientUnits="userSpaceOnUse" x1="659.4183" y1="1790.8048" x2="686.1396" y2="1816.3641" gradientTransform="matrix(0.8481 0.5298 -0.5298 0.8481 516.944 -1828.6912)">
	<stop  offset="0" style="stop-color:#59583D"/>
	<stop  offset="1" style="stop-color:#898A5F"/>
</linearGradient>
<path style="fill:url(#SVGID_00000081610863257870334710000009658643174075499406_);" d="M133.9,68.1c0.1,0,0.2,0.1,0.3,0.1
	c0.2-0.7,0.5-1.3,0.9-1.9L133.9,68.1z"/>
<g>
	<path class="st4" d="M147.5,46.3l3.1-4.9l0.1-0.1c2.7-4.2,8.4-5.5,12.7-2.8l0,0l0.1,0.1c-0.5-1.5-1.2-3-2.1-4.4l-9.7-15.8l-1.8-3
		c-1.7-2.4-3.9-4.4-6.5-6.1l0,0c-10.8-6.8-25.1-3.5-31.9,7.4l-7.6,12.2l-31,49.6c-6.8,10.8-3.5,25.1,7.4,31.9l0,0
		c10.8,6.8,25.1,3.5,31.9-7.4L134,68l1.1-1.8c0-0.1,0.1-0.1,0.1-0.2L147.5,46.3z"/>
	<path class="st4" d="M147.5,46.3l-12.4,19.8c0,0-0.1,0.1-0.1,0.2L147.5,46.3L147.5,46.3z"/>
	<path class="st4" d="M147.5,46.3l-12.4,19.8c0,0-0.1,0.1-0.1,0.2L147.5,46.3L147.5,46.3z"/>
	<path class="st4" d="M150.5,41.4l-3.1,4.9l0,0L150.5,41.4C150.6,41.3,150.6,41.4,150.5,41.4z"/>
	<path class="st4" d="M150.5,41.4l-3.1,4.9l0,0L150.5,41.4C150.6,41.3,150.6,41.4,150.5,41.4z"/>
	<path class="st4" d="M150.5,41.4l-3.1,4.9l0,0L150.5,41.4C150.6,41.3,150.6,41.4,150.5,41.4z"/>
</g>
<path class="st5" d="M163.4,38.5l-0.1-0.1l0,0c-4.3-2.7-9.9-1.4-12.7,2.8l-3.1,5l-12.5,20c-0.4,0.6-0.7,1.3-0.9,1.9
	c6.3,2.1,13.5,1.6,19.6-2.2l0,0C163.2,60.2,167,48.6,163.4,38.5z"/>
<ellipse transform="matrix(3.674096e-03 -1 1 3.674096e-03 78.4488 259.8356)" class="st4" cx="169.6" cy="90.5" rx="23.1" ry="23.1"/>
<path class="st0" d="M182.2,85.7h-7.6V78c0-1.1-0.8-1.9-1.9-1.9h-6c-1.1,0-1.9,0.8-1.9,1.9v7.7h-7.6c-1.1,0-2,0.9-2,2v5.8
	c0,1.1,0.9,2,2,2h7.6v7.7c0,1.1,0.8,1.9,1.9,1.9h6c1.1,0,1.9-0.8,1.9-1.9v-7.7h7.6c1.1,0,2-0.9,2-2v-5.8
	C184.2,86.6,183.3,85.7,182.2,85.7z"/>
</svg>
