<?xml version="1.0" encoding="utf-8"?>
<!-- Generator: Adobe Illustrator 26.0.0, SVG Export Plug-In . SVG Version: 6.00 Build 0)  -->
<svg version="1.1" id="Capa_1" xmlns="http://www.w3.org/2000/svg" xmlns:xlink="http://www.w3.org/1999/xlink" x="0px" y="0px"
	 viewBox="0 0 512 512" style="enable-background:new 0 0 512 512;" xml:space="preserve">
<style type="text/css">
	.st0{fill:#28BBE1;}
	.st1{fill:#FEFEFE;}
	.st2{fill:#FCFCFC;}
	.st3{fill:#F4F4F4;}
</style>
<g>
	<path class="st0" d="M40.6,254.2c0.1-65.4,0.8-130.8-0.2-196.2C39.8,22.3,55.5,7.2,90.9,7.7C164,8.6,237.2,8.4,310.3,7.8
		c32.6-0.3,47.7,12.9,49.3,46.8c3.1,68.9,4.3,69.9,70.8,73.8c29.7,1.7,41.9,14.5,41.5,43.3c-0.6,45.1-1,90.3,0.2,135.4
		c1,33.7-13.1,46.7-47,47.6c-65.1,1.7-65.4,3.5-65.8,71.5c-0.5,77.3-0.5,77.4-77.3,77.4c-62.3,0-124.6-1.5-186.8,0.5
		c-39.7,1.3-56.6-12.7-55.3-53.9C42.1,385,40.5,319.6,40.6,254.2z"/>
	<path class="st1" d="M70,240c0-32.7-0.2-65.5,0.1-98.2c0.2-23.8,10.9-39.3,36.1-39.6c60.8-0.6,121.6-0.6,182.4-0.1
		c9.8,0.1,25-1.3,23.1,15c-1.3,11.2-14,10.7-23.1,10.9c-29.6,0.7-59.3,1.4-88.8,0.6c-30.3-0.8-47.2,10-46.6,43
		c0.9,46.8,0.7,93.6,0.1,140.3c-0.4,29.4,13,42.8,42.4,42.3c31.2-0.6,62.4,0,93.5,0.8c9,0.2,21.7,0,22.6,11.5
		c1.2,15.9-13.7,14.6-23.7,14.7c-60.8,0.5-121.6,0.3-182.4,0.3c-25.8,0-35.9-14.4-35.9-38.6c0.1-34.3,0-68.6,0-102.9
		C69.9,240,70,240,70,240z"/>
	<path class="st1" d="M313,325.7c-10.9,0-21.8,0-32.6,0c-94.8,0-95.2-0.3-89.8-97c0.6-10.3-3.8-23.7,8.1-29.4
		c11.7-5.6,20.1,5.1,28.4,11.4c10.4,7.9,17.6,17.4,11.4,32c-5.5,12.8-26.5,25.4-7.4,39.6c15.2,11.4,27.7-9.9,41.6-11.8
		c31-4.2,63.7-14.7,92.5,9c9.5,7.8,19.9,18.6,32.1,5.9c11.2-11.7,3-23.3-4.7-33.2c-11.9-15.3-11.2-28.4,5.3-39.3
		c8.7-5.8,16.2-17.8,27.8-13.7c13.1,4.6,8.7,18.6,8.7,28.7C435,346.4,441,323.4,313,325.7z"/>
	<path class="st1" d="M193.8,465.6c-31.1,0-62.2,0.5-93.3-0.2c-15.2-0.3-28.4-6-27.2-24.5c1-15.6,13.1-20.7,26.3-20.8
		c63.8-0.5,127.5-0.6,191.3,0c15,0.1,28.5,5.9,27.3,24.5c-1,15.6-13.2,20.5-26.4,20.7C259.2,466,226.5,465.6,193.8,465.6z"/>
	<path class="st2" d="M235.5,161.6c53.5-7.1,100.7-4,150.4-2.4C327.2,252.3,293.6,238.5,235.5,161.6z"/>
	<path class="st3" d="M195.3,45.1c30.9,0,61.8-0.3,92.7,0.2c8.8,0.1,21.1-0.7,22.3,11.2c1.2,11.9-10.7,14.5-19.5,14.6
		c-63.3,0.6-126.7,0.6-190,0.2c-9-0.1-20.7-2.7-20-14.3c0.7-12,13-11.5,21.8-11.7C133.5,44.8,164.4,45.1,195.3,45.1z"/>
</g>
</svg>
