<?xml version="1.0" encoding="utf-8"?>
<!-- Generator: Adobe Illustrator 26.0.0, SVG Export Plug-In . SVG Version: 6.00 Build 0)  -->
<svg version="1.1" id="Capa_1" xmlns="http://www.w3.org/2000/svg" xmlns:xlink="http://www.w3.org/1999/xlink" x="0px" y="0px"
	 viewBox="0 0 512 512" style="enable-background:new 0 0 512 512;" xml:space="preserve">
<style type="text/css">
	.st0{fill:#28BBE1;}
	.st1{fill:#FFFFFF;}
	.st2{fill:#F9F9F9;}
	.st3{fill:#FEFEFE;}
</style>
<path class="st0" d="M340.5,490.3c-46.7-1.1-88.4-15.4-121.9-48c-50.8-49.4-101.4-99.1-150.3-150.4C-9.2,210.7,3.2,96.6,94.4,30.8
	c16.7-12,30.7-12.7,45.2,1.2c13.4,12.7,26.5,25.8,39.6,38.8c54,53.9,54.3,54.2,10.5,114.9c-14,19.3-14.3,36.8,1.6,54.1
	c12.5,13.6,25.7,26.6,38.7,39.7c57.9,58,58.2,58.3,123.8,10.8c16.6-12.1,30.7-12.7,45.2,1.2c18.9,18.2,37.5,36.6,56,55.2
	c44.7,44.9,44.6,50.8-3.1,94.7C420.4,470.2,384.2,489.1,340.5,490.3z"/>
<path class="st0" d="M270.5,156.7c0-15.4-0.6-30.8,0.2-46.2c0.5-11.1,5.8-27.1,17.1-22c44.4,20,60.7-17,83.5-38.6
	c43.5-41.3,98.6-27.6,121.4,31c5.6,14.5-1.2,23.7-10,32.7c-17.1,17.7-34.8,34.9-52,52.7c-9.5,9.8-23.4,20.7-14.4,35.5
	c23.5,38.7-4.2,36.4-28.2,37.5c-12.3,0.6-24.7,0.2-37,0.2C269.7,239.3,269.7,239.3,270.5,156.7z"/>
<path class="st1" d="M141.8,198.1c-5,30.9,3.6,52.5,22.9,70.9c25.6,24.5,50.1,50.1,75.5,74.8c17.3,16.8,38.3,29.8,62.3,23.1
	C350,353.5,368.2,391,393,416c14.7,14.8,2,24.1-11.7,31.1c-37,18.8-90.5,11.4-124.5-21.4C198,369,140.3,311.3,83.6,252.5
	C50.7,218.4,43.4,165.1,62.1,128c7-13.8,16.4-26.5,31.1-11.8C117,140,155.3,157.1,141.8,198.1z"/>
<path class="st2" d="M113.4,74.1c30.5,13.6,51.5,34.2,64.9,61.9C143.8,127.3,127,101.2,113.4,74.1z"/>
<path class="st2" d="M444.4,404.1c-39.6-18.5-60.3-40.8-80.7-79C403.4,343.6,424.1,365.9,444.4,404.1z"/>
<path class="st3" d="M447,90.3c-3.6,4.9-7.3,11.6-12.5,17c-26.6,27.7-53.3,55.2-80.5,82.3c-12.2,12.1-27.5,17.5-39.9,2.4
	c-10.9-13.3-9.5-30.6,4.9-40.9c31.6-22.5,56.3-52,84.4-78c8.2-7.6,16.9-14.2,28.5-7.1C440,70.9,445.6,78.1,447,90.3z"/>
</svg>
